<mxfile host="app.diagrams.net" modified="2021-11-02T12:44:41.682Z" agent="5.0 (Windows)" etag="ZW7uHbLA_jCo-kVUc5JX" version="15.6.5" type="github">
  <diagram id="3pQnXrzSG3vX-jDDkCfl" name="Page-1">
    <mxGraphModel dx="865" dy="447" grid="1" gridSize="10" guides="1" tooltips="1" connect="1" arrows="1" fold="1" page="1" pageScale="1" pageWidth="827" pageHeight="1169" math="0" shadow="0">
      <root>
        <mxCell id="0" />
        <mxCell id="1" parent="0" />
        <mxCell id="MmpGkMe2nX216u95FJ8I-1" value="註冊" style="ellipse;whiteSpace=wrap;html=1;fillColor=default;strokeColor=default;fontColor=default;" parent="1" vertex="1">
          <mxGeometry x="370" y="30" width="140" height="70" as="geometry" />
        </mxCell>
        <mxCell id="MmpGkMe2nX216u95FJ8I-3" style="edgeStyle=orthogonalEdgeStyle;rounded=0;orthogonalLoop=1;jettySize=auto;html=1;entryX=0;entryY=0.5;entryDx=0;entryDy=0;" parent="1" source="MmpGkMe2nX216u95FJ8I-2" target="MmpGkMe2nX216u95FJ8I-1" edge="1">
          <mxGeometry relative="1" as="geometry" />
        </mxCell>
        <mxCell id="MmpGkMe2nX216u95FJ8I-2" value="&lt;div&gt;第一次使用&lt;br&gt;&lt;/div&gt;" style="shape=umlActor;verticalLabelPosition=bottom;verticalAlign=top;html=1;fillColor=default;strokeColor=default;fontColor=default;" parent="1" vertex="1">
          <mxGeometry x="100" y="35" width="30" height="60" as="geometry" />
        </mxCell>
        <mxCell id="_9rkQAgJzxw9d2bGMF5m-8" style="edgeStyle=orthogonalEdgeStyle;rounded=0;orthogonalLoop=1;jettySize=auto;html=1;exitX=0.5;exitY=0.5;exitDx=0;exitDy=0;exitPerimeter=0;labelBackgroundColor=default;fontColor=default;strokeColor=default;entryX=0;entryY=0.5;entryDx=0;entryDy=0;" edge="1" parent="1" source="MmpGkMe2nX216u95FJ8I-4" target="_9rkQAgJzxw9d2bGMF5m-7">
          <mxGeometry relative="1" as="geometry">
            <mxPoint x="380" y="280" as="targetPoint" />
          </mxGeometry>
        </mxCell>
        <mxCell id="_9rkQAgJzxw9d2bGMF5m-47" style="edgeStyle=orthogonalEdgeStyle;rounded=0;orthogonalLoop=1;jettySize=auto;html=1;entryX=0;entryY=0.5;entryDx=0;entryDy=0;labelBackgroundColor=default;fontColor=default;endArrow=classic;endFill=1;strokeColor=default;" edge="1" parent="1" source="MmpGkMe2nX216u95FJ8I-4" target="_9rkQAgJzxw9d2bGMF5m-11">
          <mxGeometry relative="1" as="geometry" />
        </mxCell>
        <mxCell id="_9rkQAgJzxw9d2bGMF5m-49" style="edgeStyle=orthogonalEdgeStyle;rounded=0;orthogonalLoop=1;jettySize=auto;html=1;entryX=0;entryY=0.5;entryDx=0;entryDy=0;labelBackgroundColor=default;fontColor=default;endArrow=classic;endFill=1;strokeColor=default;" edge="1" parent="1" source="MmpGkMe2nX216u95FJ8I-4" target="_9rkQAgJzxw9d2bGMF5m-17">
          <mxGeometry relative="1" as="geometry" />
        </mxCell>
        <mxCell id="_9rkQAgJzxw9d2bGMF5m-51" style="edgeStyle=orthogonalEdgeStyle;rounded=0;orthogonalLoop=1;jettySize=auto;html=1;entryX=0;entryY=0.5;entryDx=0;entryDy=0;labelBackgroundColor=default;fontColor=default;endArrow=classic;endFill=1;strokeColor=default;" edge="1" parent="1" source="MmpGkMe2nX216u95FJ8I-4" target="_9rkQAgJzxw9d2bGMF5m-16">
          <mxGeometry relative="1" as="geometry" />
        </mxCell>
        <mxCell id="_9rkQAgJzxw9d2bGMF5m-52" style="edgeStyle=orthogonalEdgeStyle;rounded=0;orthogonalLoop=1;jettySize=auto;html=1;entryX=0;entryY=0.5;entryDx=0;entryDy=0;labelBackgroundColor=default;fontColor=default;endArrow=classic;endFill=1;strokeColor=default;" edge="1" parent="1" source="MmpGkMe2nX216u95FJ8I-4" target="_9rkQAgJzxw9d2bGMF5m-20">
          <mxGeometry relative="1" as="geometry" />
        </mxCell>
        <mxCell id="_9rkQAgJzxw9d2bGMF5m-54" style="edgeStyle=orthogonalEdgeStyle;rounded=0;orthogonalLoop=1;jettySize=auto;html=1;entryX=0;entryY=0.5;entryDx=0;entryDy=0;labelBackgroundColor=default;fontColor=default;endArrow=classic;endFill=1;strokeColor=default;" edge="1" parent="1" source="MmpGkMe2nX216u95FJ8I-4" target="_9rkQAgJzxw9d2bGMF5m-53">
          <mxGeometry relative="1" as="geometry" />
        </mxCell>
        <mxCell id="_9rkQAgJzxw9d2bGMF5m-95" style="edgeStyle=orthogonalEdgeStyle;rounded=0;orthogonalLoop=1;jettySize=auto;html=1;entryX=0;entryY=0.5;entryDx=0;entryDy=0;labelBackgroundColor=default;fontColor=default;endArrow=classic;endFill=1;strokeColor=default;" edge="1" parent="1" source="MmpGkMe2nX216u95FJ8I-4" target="_9rkQAgJzxw9d2bGMF5m-94">
          <mxGeometry relative="1" as="geometry" />
        </mxCell>
        <mxCell id="_9rkQAgJzxw9d2bGMF5m-109" style="edgeStyle=orthogonalEdgeStyle;rounded=0;orthogonalLoop=1;jettySize=auto;html=1;entryX=0;entryY=0.5;entryDx=0;entryDy=0;labelBackgroundColor=default;fontColor=default;endArrow=classic;endFill=1;strokeColor=default;" edge="1" parent="1" source="MmpGkMe2nX216u95FJ8I-4" target="_9rkQAgJzxw9d2bGMF5m-15">
          <mxGeometry relative="1" as="geometry" />
        </mxCell>
        <mxCell id="MmpGkMe2nX216u95FJ8I-4" value="&lt;div&gt;已註冊的老人&lt;/div&gt;&lt;div&gt;&lt;br&gt;&lt;/div&gt;" style="shape=umlActor;verticalLabelPosition=bottom;verticalAlign=top;html=1;fillColor=default;strokeColor=default;fontColor=default;" parent="1" vertex="1">
          <mxGeometry x="110" y="595" width="30" height="60" as="geometry" />
        </mxCell>
        <mxCell id="_9rkQAgJzxw9d2bGMF5m-9" style="edgeStyle=orthogonalEdgeStyle;rounded=0;orthogonalLoop=1;jettySize=auto;html=1;exitX=0.5;exitY=0.5;exitDx=0;exitDy=0;exitPerimeter=0;entryX=1;entryY=0.5;entryDx=0;entryDy=0;labelBackgroundColor=default;fontColor=default;strokeColor=default;" edge="1" parent="1" source="_9rkQAgJzxw9d2bGMF5m-2" target="_9rkQAgJzxw9d2bGMF5m-7">
          <mxGeometry relative="1" as="geometry" />
        </mxCell>
        <mxCell id="_9rkQAgJzxw9d2bGMF5m-59" style="edgeStyle=orthogonalEdgeStyle;rounded=0;orthogonalLoop=1;jettySize=auto;html=1;entryX=1;entryY=0.5;entryDx=0;entryDy=0;labelBackgroundColor=default;fontColor=default;endArrow=classic;endFill=1;strokeColor=default;" edge="1" parent="1" source="_9rkQAgJzxw9d2bGMF5m-2" target="_9rkQAgJzxw9d2bGMF5m-11">
          <mxGeometry relative="1" as="geometry" />
        </mxCell>
        <mxCell id="_9rkQAgJzxw9d2bGMF5m-61" style="edgeStyle=orthogonalEdgeStyle;rounded=0;orthogonalLoop=1;jettySize=auto;html=1;entryX=1;entryY=0.5;entryDx=0;entryDy=0;labelBackgroundColor=default;fontColor=default;endArrow=classic;endFill=1;strokeColor=default;" edge="1" parent="1" source="_9rkQAgJzxw9d2bGMF5m-2" target="_9rkQAgJzxw9d2bGMF5m-17">
          <mxGeometry relative="1" as="geometry" />
        </mxCell>
        <mxCell id="_9rkQAgJzxw9d2bGMF5m-62" style="edgeStyle=orthogonalEdgeStyle;rounded=0;orthogonalLoop=1;jettySize=auto;html=1;entryX=1;entryY=0.5;entryDx=0;entryDy=0;labelBackgroundColor=default;fontColor=default;endArrow=classic;endFill=1;strokeColor=default;" edge="1" parent="1" source="_9rkQAgJzxw9d2bGMF5m-2" target="_9rkQAgJzxw9d2bGMF5m-15">
          <mxGeometry relative="1" as="geometry" />
        </mxCell>
        <mxCell id="_9rkQAgJzxw9d2bGMF5m-63" style="edgeStyle=orthogonalEdgeStyle;rounded=0;orthogonalLoop=1;jettySize=auto;html=1;entryX=1;entryY=0.5;entryDx=0;entryDy=0;labelBackgroundColor=default;fontColor=default;endArrow=classic;endFill=1;strokeColor=default;" edge="1" parent="1" source="_9rkQAgJzxw9d2bGMF5m-2" target="_9rkQAgJzxw9d2bGMF5m-16">
          <mxGeometry relative="1" as="geometry" />
        </mxCell>
        <mxCell id="_9rkQAgJzxw9d2bGMF5m-64" style="edgeStyle=orthogonalEdgeStyle;rounded=0;orthogonalLoop=1;jettySize=auto;html=1;entryX=1;entryY=0.5;entryDx=0;entryDy=0;labelBackgroundColor=default;fontColor=default;endArrow=classic;endFill=1;strokeColor=default;" edge="1" parent="1" source="_9rkQAgJzxw9d2bGMF5m-2" target="_9rkQAgJzxw9d2bGMF5m-20">
          <mxGeometry relative="1" as="geometry" />
        </mxCell>
        <mxCell id="_9rkQAgJzxw9d2bGMF5m-65" style="edgeStyle=orthogonalEdgeStyle;rounded=0;orthogonalLoop=1;jettySize=auto;html=1;entryX=1;entryY=0.5;entryDx=0;entryDy=0;labelBackgroundColor=default;fontColor=default;endArrow=classic;endFill=1;strokeColor=default;" edge="1" parent="1" source="_9rkQAgJzxw9d2bGMF5m-2" target="_9rkQAgJzxw9d2bGMF5m-53">
          <mxGeometry relative="1" as="geometry" />
        </mxCell>
        <mxCell id="_9rkQAgJzxw9d2bGMF5m-96" style="edgeStyle=orthogonalEdgeStyle;rounded=0;orthogonalLoop=1;jettySize=auto;html=1;labelBackgroundColor=default;fontColor=default;endArrow=classic;endFill=1;strokeColor=default;" edge="1" parent="1" source="_9rkQAgJzxw9d2bGMF5m-2" target="_9rkQAgJzxw9d2bGMF5m-94">
          <mxGeometry relative="1" as="geometry" />
        </mxCell>
        <mxCell id="_9rkQAgJzxw9d2bGMF5m-2" value="已註冊的一般民眾" style="shape=umlActor;verticalLabelPosition=bottom;verticalAlign=top;html=1;fillColor=default;strokeColor=default;fontColor=default;" vertex="1" parent="1">
          <mxGeometry x="750" y="600" width="30" height="60" as="geometry" />
        </mxCell>
        <mxCell id="_9rkQAgJzxw9d2bGMF5m-7" value="登入" style="ellipse;whiteSpace=wrap;html=1;fillColor=default;strokeColor=default;fontColor=default;" vertex="1" parent="1">
          <mxGeometry x="370" y="120" width="140" height="70" as="geometry" />
        </mxCell>
        <mxCell id="_9rkQAgJzxw9d2bGMF5m-79" style="edgeStyle=orthogonalEdgeStyle;rounded=0;orthogonalLoop=1;jettySize=auto;html=1;entryX=0;entryY=0.5;entryDx=0;entryDy=0;labelBackgroundColor=default;fontColor=default;endArrow=classic;endFill=1;strokeColor=default;" edge="1" parent="1" source="_9rkQAgJzxw9d2bGMF5m-10" target="_9rkQAgJzxw9d2bGMF5m-66">
          <mxGeometry relative="1" as="geometry" />
        </mxCell>
        <mxCell id="_9rkQAgJzxw9d2bGMF5m-80" style="edgeStyle=orthogonalEdgeStyle;rounded=0;orthogonalLoop=1;jettySize=auto;html=1;entryX=0;entryY=0.5;entryDx=0;entryDy=0;labelBackgroundColor=default;fontColor=default;endArrow=classic;endFill=1;strokeColor=default;" edge="1" parent="1" source="_9rkQAgJzxw9d2bGMF5m-10" target="_9rkQAgJzxw9d2bGMF5m-77">
          <mxGeometry relative="1" as="geometry" />
        </mxCell>
        <mxCell id="_9rkQAgJzxw9d2bGMF5m-81" style="edgeStyle=orthogonalEdgeStyle;rounded=0;orthogonalLoop=1;jettySize=auto;html=1;entryX=0;entryY=0.5;entryDx=0;entryDy=0;labelBackgroundColor=default;fontColor=default;endArrow=classic;endFill=1;strokeColor=default;" edge="1" parent="1" source="_9rkQAgJzxw9d2bGMF5m-10" target="_9rkQAgJzxw9d2bGMF5m-78">
          <mxGeometry relative="1" as="geometry" />
        </mxCell>
        <mxCell id="_9rkQAgJzxw9d2bGMF5m-10" value="管理者" style="shape=umlActor;verticalLabelPosition=bottom;verticalAlign=top;html=1;fillColor=default;strokeColor=default;fontColor=default;" vertex="1" parent="1">
          <mxGeometry x="100" y="1770" width="30" height="60" as="geometry" />
        </mxCell>
        <mxCell id="_9rkQAgJzxw9d2bGMF5m-71" style="rounded=0;orthogonalLoop=1;jettySize=auto;html=1;entryX=0;entryY=0;entryDx=0;entryDy=0;labelBackgroundColor=default;fontColor=default;endArrow=classic;endFill=1;strokeColor=default;dashed=1;" edge="1" parent="1" source="_9rkQAgJzxw9d2bGMF5m-11" target="_9rkQAgJzxw9d2bGMF5m-70">
          <mxGeometry relative="1" as="geometry" />
        </mxCell>
        <mxCell id="_9rkQAgJzxw9d2bGMF5m-72" style="edgeStyle=none;rounded=0;orthogonalLoop=1;jettySize=auto;html=1;entryX=1;entryY=0;entryDx=0;entryDy=0;dashed=1;labelBackgroundColor=default;fontColor=default;endArrow=classic;endFill=1;strokeColor=default;" edge="1" parent="1" source="_9rkQAgJzxw9d2bGMF5m-11" target="_9rkQAgJzxw9d2bGMF5m-69">
          <mxGeometry relative="1" as="geometry" />
        </mxCell>
        <mxCell id="_9rkQAgJzxw9d2bGMF5m-11" value="使用名片" style="ellipse;whiteSpace=wrap;html=1;fillColor=default;strokeColor=default;fontColor=default;" vertex="1" parent="1">
          <mxGeometry x="370" y="205" width="140" height="70" as="geometry" />
        </mxCell>
        <mxCell id="_9rkQAgJzxw9d2bGMF5m-12" value="&lt;div&gt;發送定位&lt;/div&gt;" style="ellipse;whiteSpace=wrap;html=1;fillColor=default;strokeColor=default;fontColor=default;" vertex="1" parent="1">
          <mxGeometry x="281" y="764" width="140" height="70" as="geometry" />
        </mxCell>
        <mxCell id="_9rkQAgJzxw9d2bGMF5m-106" style="edgeStyle=none;rounded=0;orthogonalLoop=1;jettySize=auto;html=1;entryX=0;entryY=0;entryDx=0;entryDy=0;dashed=1;labelBackgroundColor=default;fontColor=default;endArrow=classic;endFill=1;strokeColor=default;" edge="1" parent="1" source="_9rkQAgJzxw9d2bGMF5m-15" target="_9rkQAgJzxw9d2bGMF5m-103">
          <mxGeometry relative="1" as="geometry" />
        </mxCell>
        <mxCell id="_9rkQAgJzxw9d2bGMF5m-107" style="edgeStyle=none;rounded=0;orthogonalLoop=1;jettySize=auto;html=1;entryX=1;entryY=0;entryDx=0;entryDy=0;dashed=1;labelBackgroundColor=default;fontColor=default;endArrow=classic;endFill=1;strokeColor=default;" edge="1" parent="1" source="_9rkQAgJzxw9d2bGMF5m-15" target="_9rkQAgJzxw9d2bGMF5m-12">
          <mxGeometry relative="1" as="geometry" />
        </mxCell>
        <mxCell id="_9rkQAgJzxw9d2bGMF5m-15" value="使用QRCode掃描" style="ellipse;whiteSpace=wrap;html=1;fillColor=default;strokeColor=default;fontColor=default;" vertex="1" parent="1">
          <mxGeometry x="370" y="680" width="140" height="70" as="geometry" />
        </mxCell>
        <mxCell id="_9rkQAgJzxw9d2bGMF5m-16" value="檢視個人QRCode名片" style="ellipse;whiteSpace=wrap;html=1;fillColor=default;strokeColor=default;fontColor=default;" vertex="1" parent="1">
          <mxGeometry x="370" y="850" width="140" height="70" as="geometry" />
        </mxCell>
        <mxCell id="_9rkQAgJzxw9d2bGMF5m-17" value="使用聊天室" style="ellipse;whiteSpace=wrap;html=1;fillColor=default;strokeColor=default;fontColor=default;" vertex="1" parent="1">
          <mxGeometry x="370" y="380" width="140" height="70" as="geometry" />
        </mxCell>
        <mxCell id="_9rkQAgJzxw9d2bGMF5m-18" value="&lt;div&gt;檢視當前位置&lt;/div&gt;" style="ellipse;whiteSpace=wrap;html=1;fillColor=default;strokeColor=default;fontColor=default;" vertex="1" parent="1">
          <mxGeometry x="220" y="1000" width="140" height="70" as="geometry" />
        </mxCell>
        <mxCell id="_9rkQAgJzxw9d2bGMF5m-19" value="查詢歷史路線" style="ellipse;whiteSpace=wrap;html=1;fillColor=default;strokeColor=default;fontColor=default;" vertex="1" parent="1">
          <mxGeometry x="370" y="1030" width="140" height="70" as="geometry" />
        </mxCell>
        <mxCell id="_9rkQAgJzxw9d2bGMF5m-20" value="&lt;div&gt;使用地圖&lt;/div&gt;" style="ellipse;whiteSpace=wrap;html=1;fillColor=default;strokeColor=default;fontColor=default;" vertex="1" parent="1">
          <mxGeometry x="370" y="930" width="140" height="70" as="geometry" />
        </mxCell>
        <mxCell id="_9rkQAgJzxw9d2bGMF5m-21" value="發送訊息" style="ellipse;whiteSpace=wrap;html=1;fillColor=default;strokeColor=default;fontColor=default;" vertex="1" parent="1">
          <mxGeometry x="310" y="460" width="140" height="70" as="geometry" />
        </mxCell>
        <mxCell id="_9rkQAgJzxw9d2bGMF5m-22" value="接收訊息" style="ellipse;whiteSpace=wrap;html=1;fillColor=default;strokeColor=default;fontColor=default;" vertex="1" parent="1">
          <mxGeometry x="455" y="460" width="140" height="70" as="geometry" />
        </mxCell>
        <mxCell id="_9rkQAgJzxw9d2bGMF5m-24" value="" style="endArrow=classic;html=1;rounded=0;labelBackgroundColor=default;fontColor=default;strokeColor=default;entryX=0.685;entryY=0.055;entryDx=0;entryDy=0;entryPerimeter=0;exitX=0.5;exitY=1;exitDx=0;exitDy=0;dashed=1;endFill=1;" edge="1" parent="1" source="_9rkQAgJzxw9d2bGMF5m-17" target="_9rkQAgJzxw9d2bGMF5m-21">
          <mxGeometry width="50" height="50" relative="1" as="geometry">
            <mxPoint x="510" y="350" as="sourcePoint" />
            <mxPoint x="560" y="300" as="targetPoint" />
          </mxGeometry>
        </mxCell>
        <mxCell id="_9rkQAgJzxw9d2bGMF5m-25" value="" style="endArrow=classic;dashed=1;html=1;rounded=0;labelBackgroundColor=default;fontColor=default;strokeColor=default;entryX=0;entryY=0;entryDx=0;entryDy=0;exitX=0.5;exitY=1;exitDx=0;exitDy=0;endFill=1;" edge="1" parent="1" source="_9rkQAgJzxw9d2bGMF5m-17" target="_9rkQAgJzxw9d2bGMF5m-22">
          <mxGeometry width="50" height="50" relative="1" as="geometry">
            <mxPoint x="490" y="490" as="sourcePoint" />
            <mxPoint x="540" y="440" as="targetPoint" />
          </mxGeometry>
        </mxCell>
        <mxCell id="_9rkQAgJzxw9d2bGMF5m-27" value="include" style="text;html=1;align=center;verticalAlign=middle;resizable=0;points=[];autosize=1;strokeColor=none;fillColor=none;fontColor=default;" vertex="1" parent="1">
          <mxGeometry x="364" y="440" width="50" height="20" as="geometry" />
        </mxCell>
        <mxCell id="_9rkQAgJzxw9d2bGMF5m-32" value="" style="endArrow=classic;html=1;rounded=0;dashed=1;labelBackgroundColor=default;fontColor=default;strokeColor=default;exitX=0;exitY=1;exitDx=0;exitDy=0;" edge="1" parent="1" source="_9rkQAgJzxw9d2bGMF5m-20" target="_9rkQAgJzxw9d2bGMF5m-18">
          <mxGeometry width="50" height="50" relative="1" as="geometry">
            <mxPoint x="500" y="850" as="sourcePoint" />
            <mxPoint x="570" y="850" as="targetPoint" />
          </mxGeometry>
        </mxCell>
        <mxCell id="_9rkQAgJzxw9d2bGMF5m-33" value="" style="endArrow=classic;html=1;rounded=0;dashed=1;labelBackgroundColor=default;fontColor=default;strokeColor=default;exitX=0.5;exitY=1;exitDx=0;exitDy=0;" edge="1" parent="1" source="_9rkQAgJzxw9d2bGMF5m-20" target="_9rkQAgJzxw9d2bGMF5m-19">
          <mxGeometry width="50" height="50" relative="1" as="geometry">
            <mxPoint x="502.72" y="899.9999999999999" as="sourcePoint" />
            <mxPoint x="580" y="859.5999999999998" as="targetPoint" />
          </mxGeometry>
        </mxCell>
        <mxCell id="_9rkQAgJzxw9d2bGMF5m-34" value="檢視附近使用者" style="ellipse;whiteSpace=wrap;html=1;fillColor=default;strokeColor=default;fontColor=default;" vertex="1" parent="1">
          <mxGeometry x="540" y="1000" width="140" height="70" as="geometry" />
        </mxCell>
        <mxCell id="_9rkQAgJzxw9d2bGMF5m-36" value="include" style="text;html=1;align=center;verticalAlign=middle;resizable=0;points=[];autosize=1;strokeColor=none;fillColor=none;fontColor=default;" vertex="1" parent="1">
          <mxGeometry x="364" y="744" width="50" height="20" as="geometry" />
        </mxCell>
        <mxCell id="_9rkQAgJzxw9d2bGMF5m-37" value="include" style="text;html=1;align=center;verticalAlign=middle;resizable=0;points=[];autosize=1;strokeColor=none;fillColor=none;fontColor=default;" vertex="1" parent="1">
          <mxGeometry x="330" y="980" width="50" height="20" as="geometry" />
        </mxCell>
        <mxCell id="_9rkQAgJzxw9d2bGMF5m-38" value="include" style="text;html=1;align=center;verticalAlign=middle;resizable=0;points=[];autosize=1;strokeColor=none;fillColor=none;fontColor=default;" vertex="1" parent="1">
          <mxGeometry x="440" y="1000" width="50" height="20" as="geometry" />
        </mxCell>
        <mxCell id="_9rkQAgJzxw9d2bGMF5m-41" value="include" style="text;html=1;align=center;verticalAlign=middle;resizable=0;points=[];autosize=1;strokeColor=none;fillColor=none;fontColor=default;" vertex="1" parent="1">
          <mxGeometry x="500" y="990" width="50" height="20" as="geometry" />
        </mxCell>
        <mxCell id="_9rkQAgJzxw9d2bGMF5m-43" value="" style="endArrow=classic;html=1;rounded=0;dashed=1;labelBackgroundColor=default;fontColor=default;strokeColor=default;entryX=0;entryY=0.5;entryDx=0;entryDy=0;exitX=1;exitY=1;exitDx=0;exitDy=0;" edge="1" parent="1" source="_9rkQAgJzxw9d2bGMF5m-20" target="_9rkQAgJzxw9d2bGMF5m-34">
          <mxGeometry width="50" height="50" relative="1" as="geometry">
            <mxPoint x="520" y="665" as="sourcePoint" />
            <mxPoint x="590" y="665" as="targetPoint" />
          </mxGeometry>
        </mxCell>
        <mxCell id="_9rkQAgJzxw9d2bGMF5m-88" style="edgeStyle=none;rounded=0;orthogonalLoop=1;jettySize=auto;html=1;dashed=1;labelBackgroundColor=default;fontColor=default;endArrow=classic;endFill=1;strokeColor=default;" edge="1" parent="1" source="_9rkQAgJzxw9d2bGMF5m-53" target="_9rkQAgJzxw9d2bGMF5m-87">
          <mxGeometry relative="1" as="geometry" />
        </mxCell>
        <mxCell id="_9rkQAgJzxw9d2bGMF5m-91" style="edgeStyle=none;rounded=0;orthogonalLoop=1;jettySize=auto;html=1;entryX=0.5;entryY=0;entryDx=0;entryDy=0;dashed=1;labelBackgroundColor=default;fontColor=default;endArrow=classic;endFill=1;strokeColor=default;" edge="1" parent="1" source="_9rkQAgJzxw9d2bGMF5m-53" target="_9rkQAgJzxw9d2bGMF5m-89">
          <mxGeometry relative="1" as="geometry" />
        </mxCell>
        <mxCell id="_9rkQAgJzxw9d2bGMF5m-92" style="edgeStyle=none;rounded=0;orthogonalLoop=1;jettySize=auto;html=1;entryX=1;entryY=0;entryDx=0;entryDy=0;dashed=1;labelBackgroundColor=default;fontColor=default;endArrow=classic;endFill=1;strokeColor=default;" edge="1" parent="1" source="_9rkQAgJzxw9d2bGMF5m-53" target="_9rkQAgJzxw9d2bGMF5m-90">
          <mxGeometry relative="1" as="geometry" />
        </mxCell>
        <mxCell id="_9rkQAgJzxw9d2bGMF5m-53" value="使用設定" style="ellipse;whiteSpace=wrap;html=1;fillColor=default;strokeColor=default;fontColor=default;" vertex="1" parent="1">
          <mxGeometry x="370" y="1310" width="140" height="70" as="geometry" />
        </mxCell>
        <mxCell id="_9rkQAgJzxw9d2bGMF5m-82" style="rounded=0;orthogonalLoop=1;jettySize=auto;html=1;entryX=1;entryY=0;entryDx=0;entryDy=0;labelBackgroundColor=default;fontColor=default;endArrow=classic;endFill=1;strokeColor=default;dashed=1;" edge="1" parent="1" source="_9rkQAgJzxw9d2bGMF5m-66" target="_9rkQAgJzxw9d2bGMF5m-68">
          <mxGeometry relative="1" as="geometry" />
        </mxCell>
        <mxCell id="_9rkQAgJzxw9d2bGMF5m-83" style="edgeStyle=none;rounded=0;orthogonalLoop=1;jettySize=auto;html=1;entryX=0;entryY=0;entryDx=0;entryDy=0;dashed=1;labelBackgroundColor=default;fontColor=default;endArrow=classic;endFill=1;strokeColor=default;" edge="1" parent="1" source="_9rkQAgJzxw9d2bGMF5m-66" target="_9rkQAgJzxw9d2bGMF5m-67">
          <mxGeometry relative="1" as="geometry" />
        </mxCell>
        <mxCell id="_9rkQAgJzxw9d2bGMF5m-66" value="會員管理" style="ellipse;whiteSpace=wrap;html=1;fontColor=default;strokeColor=default;fillColor=default;" vertex="1" parent="1">
          <mxGeometry x="390" y="1520" width="120" height="80" as="geometry" />
        </mxCell>
        <mxCell id="_9rkQAgJzxw9d2bGMF5m-67" value="刪除會員" style="ellipse;whiteSpace=wrap;html=1;fontColor=default;strokeColor=default;fillColor=default;" vertex="1" parent="1">
          <mxGeometry x="470" y="1610" width="120" height="80" as="geometry" />
        </mxCell>
        <mxCell id="_9rkQAgJzxw9d2bGMF5m-68" value="&lt;div&gt;限制權限&lt;br&gt;&lt;/div&gt;" style="ellipse;whiteSpace=wrap;html=1;fontColor=default;strokeColor=default;fillColor=default;" vertex="1" parent="1">
          <mxGeometry x="320" y="1610" width="120" height="80" as="geometry" />
        </mxCell>
        <mxCell id="_9rkQAgJzxw9d2bGMF5m-69" value="修改基本資料" style="ellipse;whiteSpace=wrap;html=1;fillColor=default;strokeColor=default;fontColor=default;" vertex="1" parent="1">
          <mxGeometry x="300" y="290" width="140" height="70" as="geometry" />
        </mxCell>
        <mxCell id="_9rkQAgJzxw9d2bGMF5m-70" value="管理個人照片" style="ellipse;whiteSpace=wrap;html=1;fillColor=default;strokeColor=default;fontColor=default;" vertex="1" parent="1">
          <mxGeometry x="450" y="290" width="140" height="70" as="geometry" />
        </mxCell>
        <mxCell id="_9rkQAgJzxw9d2bGMF5m-74" value="include" style="text;html=1;align=center;verticalAlign=middle;resizable=0;points=[];autosize=1;strokeColor=none;fillColor=none;fontColor=default;" vertex="1" parent="1">
          <mxGeometry x="460" y="275" width="50" height="20" as="geometry" />
        </mxCell>
        <mxCell id="_9rkQAgJzxw9d2bGMF5m-75" value="include" style="text;html=1;align=center;verticalAlign=middle;resizable=0;points=[];autosize=1;strokeColor=none;fillColor=none;fontColor=default;" vertex="1" parent="1">
          <mxGeometry x="380" y="275" width="50" height="20" as="geometry" />
        </mxCell>
        <mxCell id="_9rkQAgJzxw9d2bGMF5m-77" value="APP軟體管理" style="ellipse;whiteSpace=wrap;html=1;fontColor=default;strokeColor=default;fillColor=default;" vertex="1" parent="1">
          <mxGeometry x="390" y="1700" width="120" height="80" as="geometry" />
        </mxCell>
        <mxCell id="_9rkQAgJzxw9d2bGMF5m-78" value="網站管理" style="ellipse;whiteSpace=wrap;html=1;fontColor=default;strokeColor=default;fillColor=default;" vertex="1" parent="1">
          <mxGeometry x="390" y="1870" width="120" height="80" as="geometry" />
        </mxCell>
        <mxCell id="_9rkQAgJzxw9d2bGMF5m-84" value="include" style="text;html=1;align=center;verticalAlign=middle;resizable=0;points=[];autosize=1;strokeColor=default;fillColor=default;fontColor=default;" vertex="1" parent="1">
          <mxGeometry x="480" y="1590" width="50" height="20" as="geometry" />
        </mxCell>
        <mxCell id="_9rkQAgJzxw9d2bGMF5m-85" value="include" style="text;html=1;align=center;verticalAlign=middle;resizable=0;points=[];autosize=1;strokeColor=default;fillColor=default;fontColor=default;" vertex="1" parent="1">
          <mxGeometry x="380" y="1596" width="50" height="20" as="geometry" />
        </mxCell>
        <mxCell id="_9rkQAgJzxw9d2bGMF5m-87" value="???????" style="ellipse;whiteSpace=wrap;html=1;fontColor=default;strokeColor=default;fillColor=default;" vertex="1" parent="1">
          <mxGeometry x="510" y="1370" width="120" height="80" as="geometry" />
        </mxCell>
        <mxCell id="_9rkQAgJzxw9d2bGMF5m-89" value="???????" style="ellipse;whiteSpace=wrap;html=1;fontColor=default;strokeColor=default;fillColor=default;" vertex="1" parent="1">
          <mxGeometry x="380" y="1420" width="120" height="80" as="geometry" />
        </mxCell>
        <mxCell id="_9rkQAgJzxw9d2bGMF5m-90" value="" style="ellipse;whiteSpace=wrap;html=1;fontColor=default;strokeColor=default;fillColor=default;" vertex="1" parent="1">
          <mxGeometry x="250" y="1370" width="120" height="80" as="geometry" />
        </mxCell>
        <mxCell id="_9rkQAgJzxw9d2bGMF5m-93" value="include" style="text;html=1;align=center;verticalAlign=middle;resizable=0;points=[];autosize=1;strokeColor=none;fillColor=none;fontColor=default;" vertex="1" parent="1">
          <mxGeometry x="470" y="444" width="50" height="20" as="geometry" />
        </mxCell>
        <mxCell id="_9rkQAgJzxw9d2bGMF5m-101" style="edgeStyle=none;rounded=0;orthogonalLoop=1;jettySize=auto;html=1;entryX=0.5;entryY=0;entryDx=0;entryDy=0;dashed=1;labelBackgroundColor=default;fontColor=default;endArrow=classic;endFill=1;strokeColor=default;" edge="1" parent="1" source="_9rkQAgJzxw9d2bGMF5m-94" target="_9rkQAgJzxw9d2bGMF5m-100">
          <mxGeometry relative="1" as="geometry" />
        </mxCell>
        <mxCell id="_9rkQAgJzxw9d2bGMF5m-111" style="rounded=0;orthogonalLoop=1;jettySize=auto;html=1;entryX=0.5;entryY=0;entryDx=0;entryDy=0;labelBackgroundColor=default;fontColor=default;endArrow=classic;endFill=1;strokeColor=default;dashed=1;" edge="1" parent="1" source="_9rkQAgJzxw9d2bGMF5m-94" target="_9rkQAgJzxw9d2bGMF5m-110">
          <mxGeometry relative="1" as="geometry" />
        </mxCell>
        <mxCell id="_9rkQAgJzxw9d2bGMF5m-94" value="好友名單" style="ellipse;whiteSpace=wrap;html=1;fillColor=default;strokeColor=default;fontColor=default;" vertex="1" parent="1">
          <mxGeometry x="370" y="530" width="140" height="70" as="geometry" />
        </mxCell>
        <mxCell id="_9rkQAgJzxw9d2bGMF5m-100" value="撥通電話" style="ellipse;whiteSpace=wrap;html=1;fillColor=default;strokeColor=default;fontColor=default;" vertex="1" parent="1">
          <mxGeometry x="450" y="610" width="140" height="70" as="geometry" />
        </mxCell>
        <mxCell id="_9rkQAgJzxw9d2bGMF5m-102" value="include" style="text;html=1;align=center;verticalAlign=middle;resizable=0;points=[];autosize=1;strokeColor=none;fillColor=none;fontColor=default;" vertex="1" parent="1">
          <mxGeometry x="495" y="585" width="50" height="20" as="geometry" />
        </mxCell>
        <mxCell id="_9rkQAgJzxw9d2bGMF5m-103" value="&lt;div&gt;發送名片資訊&lt;/div&gt;" style="ellipse;whiteSpace=wrap;html=1;fillColor=default;strokeColor=default;fontColor=default;" vertex="1" parent="1">
          <mxGeometry x="460" y="764" width="140" height="70" as="geometry" />
        </mxCell>
        <mxCell id="_9rkQAgJzxw9d2bGMF5m-108" value="include" style="text;html=1;align=center;verticalAlign=middle;resizable=0;points=[];autosize=1;strokeColor=none;fillColor=none;fontColor=default;" vertex="1" parent="1">
          <mxGeometry x="470" y="744" width="50" height="20" as="geometry" />
        </mxCell>
        <mxCell id="_9rkQAgJzxw9d2bGMF5m-110" value="檢視好友資訊" style="ellipse;whiteSpace=wrap;html=1;fillColor=default;strokeColor=default;fontColor=default;" vertex="1" parent="1">
          <mxGeometry x="285" y="610" width="140" height="70" as="geometry" />
        </mxCell>
        <mxCell id="_9rkQAgJzxw9d2bGMF5m-112" value="include" style="text;html=1;align=center;verticalAlign=middle;resizable=0;points=[];autosize=1;strokeColor=none;fillColor=none;fontColor=default;" vertex="1" parent="1">
          <mxGeometry x="330" y="584" width="50" height="20" as="geometry" />
        </mxCell>
      </root>
    </mxGraphModel>
  </diagram>
</mxfile>
